# xmcd
#
# Track frame offsets:
# 150
# 12315
# 22512
# 35847
# 48346
# 68907
# 81625
# 96272
# 106741
# 120729
# 134312
# 148959
# 167129
# 188847
# 201170
# 214087
# 230187
# 243949
# 260363
# 274475
#
# Disc length: 3866 seconds
#
#
# Revision: 4
# Processed by: cddbd v1.5.1PL2 Copyright (c) Steve Scherf et al.
# Submitted via: FreeRIP 2.945 
#
DISCID=2b0f1814
DTITLE=Merle Haggard - 40 # 1 Hits CD 2
DYEAR=2004
DGENRE=Country
TTITLE0=Kentuckey Gambler
TTITLE1=Movin' On
TTITLE2=Cherokee Maiden
TTITLE3=The Roots Of My Raising
TTITLE4=I Think I'll Just Stay Here And Drink
TTITLE5=I'm Always On A Mountain When I Fall
TTITLE6=If We're Not Back In Love By Monday
TTITLE7=Bar Room Buddies
TTITLE8=My Favorite Memory
TTITLE9=Big City
TTITLE10=Yesterday's Wine
TTITLE11=Going Where The Lonely Go
TTITLE12=Pancho And Lefty
TTITLE13=You Take Me For Granted
TTITLE14=Let's Chase Each Other Around The Room
TTITLE15=Someday When Things Are Good
TTITLE16=That's The Way Love Goes
TTITLE17=A Place To Fall Apart
TTITLE18=Natural High
TTITLE19=Twinkle, Twinkle Lucky Star
EXTD=Capital Records
EXTT0=
EXTT1=
EXTT2=
EXTT3=
EXTT4=
EXTT5=
EXTT6=
EXTT7=
EXTT8=
EXTT9=
EXTT10=
EXTT11=
EXTT12=
EXTT13=
EXTT14=
EXTT15=
EXTT16=
EXTT17=
EXTT18=
EXTT19=
PLAYORDER=
